<svg xmlns="http://www.w3.org/2000/svg" width="86" height="117" viewBox="0 0 86 117"><g fill="#363636"><path d="M82.821 4.011H3.33A3.188 3.188 0 0 0 .142 7.199v46.413a3.187 3.187 0 0 0 3.188 3.189h79.492a3.188 3.188 0 0 0 3.189-3.189V7.199a3.189 3.189 0 0 0-3.19-3.188zM8.392 37.236h-.226a3.19 3.19 0 0 1-3.189-3.189v-7.283a3.188 3.188 0 0 1 3.189-3.188h.226v13.66zm61.231 15.172H13.341V8.402h56.282v44.006zM78.4 34.552c-2.289 0-4.146-1.855-4.146-4.147s1.856-4.147 4.146-4.147a4.146 4.146 0 1 1 0 8.294zM31.497 0h23.157v2.758H31.497zM46.608 64.861v-2.973h8.046V59.13H31.498v2.758h8.045v35.246a6.068 6.068 0 0 0-3.635 5.559V117h14.335v-14.307a6.062 6.062 0 0 0-3.636-5.557v-27.99h4.796l5.051 1.213v-6.711l-5.051 1.213h-4.795z"/></g></svg>