<svg xmlns="http://www.w3.org/2000/svg" width="32" height="32" viewBox="0 0 32 32"><path fill="#FFF" d="M16 0C7.164 0 0 7.164 0 16c0 8.837 7.164 16 16 16 8.837 0 16-7.163 16-16 0-8.836-7.163-16-16-16zm7.944 12.809c-.251 6.516-3.463 10.832-10.992 10.702h-.486c-.447 0-4.543-.443-5.344-1.823 2.479.19 4.247-.406 5.12-1.136-1.048-.289-2.923-.461-3.251-2.848.384.104.618.221 1.299.113-1.307-.824-2.758-1.519-2.679-3.643.311.317 1.164.518 1.46.457-.768-.233-2.149-3.244-.974-4.781 1.984 1.79 4.075 3.482 7.804 3.643.227-2.214 1.24-3.699 3.168-4.325 1.84-.479 3.255.26 3.901 1.138.737-.224 1.453-.466 2.193-.685-.004.833-.569 1.463-.935 1.709.747.165 1.423-.475 1.423-.475-.184.963-1.094 1.725-1.707 1.954z"/></svg>