<svg xmlns="http://www.w3.org/2000/svg" width="32" height="32" viewBox="0 0 32 32"><g fill="#FFF"><path d="M20.916 16a4.938 4.938 0 1 1-9.877 0c0-.394.051-.773.138-1.14h-.897v6.838h11.396V14.86h-.897c.086.367.137.746.137 1.14z"/><path d="M15.978 18.659c1.466 0 2.659-1.193 2.659-2.659s-1.193-2.659-2.659-2.659c-1.466 0-2.659 1.193-2.659 2.659s1.192 2.659 2.659 2.659zM18.637 10.302h3.039v3.039h-3.039z"/><path d="M16 0C7.164 0 0 7.164 0 16c0 8.837 7.164 16 16 16 8.837 0 16-7.163 16-16 0-8.836-7.163-16-16-16zm7.955 21.698a2.285 2.285 0 0 1-2.279 2.279H10.279A2.285 2.285 0 0 1 8 21.698V10.302a2.286 2.286 0 0 1 2.279-2.279h11.396a2.286 2.286 0 0 1 2.279 2.279v11.396z"/></g></svg>